# xmcd
#
# Track frame offsets: 
#        150
#        18697
#        40175
#        61415
#        91250
#        116632
#
# Disc length: 1799 seconds
#
# Revision: 1
# Processed by: cddbd v1.5.2PL0 Copyright (c) Steve Scherf et al.
# Submitted via: ExactAudioCopyFreeDBPlugin 1.0
#
DISCID=49070506
DTITLE=The Weather Girls feat. Jimmy Somerville - Star [Maxi-CD]
DYEAR=1996
DGENRE=
TTITLE0=Star (Radio Version)
TTITLE1=Star (Extended Version)
TTITLE2=Star (Club Mix)
TTITLE3=Star (Flatline Power Mix)
TTITLE4=Star (Flatline House Mix)
TTITLE5=Star (Radio Edit)
EXTD=
EXTT0=
EXTT1=
EXTT2=
EXTT3=
EXTT4=
EXTT5=
PLAYORDER=
